<svg xmlns="http://www.w3.org/2000/svg" width="800" height="600" viewBox="0 0 800 600">
  <defs>
    <linearGradient id="pBg1" x1="0" y1="0" x2="0" y2="1">
      <stop offset="0%" stop-color="#001830" />
      <stop offset="100%" stop-color="#002d57" />
    </linearGradient>
    <linearGradient id="fiberSteel" x1="0" y1="0" x2="1" y2="0">
      <stop offset="0%" stop-color="#94a3b8" />
      <stop offset="30%" stop-color="#f1f5f9" />
      <stop offset="70%" stop-color="#cbd5e1" />
      <stop offset="100%" stop-color="#64748b" />
    </linearGradient>
    <filter id="pGlow" x="-20%" y="-20%" width="140%" height="140%">
      <feGaussianBlur stdDeviation="8" result="blur" />
      <feComposite in="SourceGraphic" in2="blur" operator="over" />
    </filter>
  </defs>

  <rect width="800" height="600" fill="url(#pBg1)" />

  <!-- Blueprint Grid -->
  <g stroke="#ffffff" stroke-width="0.75" stroke-opacity="0.08">
    <line x1="0" y1="100" x2="800" y2="100" />
    <line x1="0" y1="200" x2="800" y2="200" />
    <line x1="0" y1="300" x2="800" y2="300" />
    <line x1="0" y1="400" x2="800" y2="400" />
    <line x1="0" y1="500" x2="800" y2="500" />
    <line x1="200" y1="0" x2="200" y2="600" />
    <line x1="400" y1="0" x2="400" y2="600" />
    <line x1="600" y1="0" x2="600" y2="600" />
  </g>

  <!-- Header Product Badge -->
  <rect x="40" y="40" width="160" height="32" rx="16" fill="#006e21" />
  <text x="120" y="61" fill="#ffffff" font-family="'Montserrat', sans-serif" font-size="11" font-weight="bold" text-anchor="middle">SERIES 80/60</text>
  <text x="220" y="62" fill="#93c5fd" font-family="'Montserrat', sans-serif" font-size="13" font-weight="600">HEAVY INDUSTRIAL SLABS &amp; PORTS</text>

  <!-- Large 3D Rendered Hooked-End Steel Fiber -->
  <g transform="translate(100, 220)">
    <!-- Shadow -->
    <path d="M 40 85 L 100 85 L 160 35 L 440 35 L 500 85 L 560 85" stroke="#000000" stroke-width="26" stroke-linecap="round" opacity="0.4" filter="url(#pGlow)" />
    
    <!-- Main Steel Fiber Body with 3D Double Hook Ends -->
    <path d="M 40 70 L 100 70 L 160 20 L 440 20 L 500 70 L 560 70" fill="none" stroke="url(#fiberSteel)" stroke-width="20" stroke-linecap="round" stroke-linejoin="round" />
    
    <!-- Highlights and specular reflections -->
    <path d="M 40 66 L 100 66 L 160 16 L 440 16 L 500 66 L 560 66" fill="none" stroke="#ffffff" stroke-width="3" opacity="0.8" />

    <!-- Dimension Annotations -->
    <!-- Length L = 60 mm -->
    <line x1="40" y1="120" x2="560" y2="120" stroke="#38bdf8" stroke-width="2" />
    <line x1="40" y1="105" x2="40" y2="135" stroke="#38bdf8" stroke-width="2" />
    <line x1="560" y1="105" x2="560" y2="135" stroke="#38bdf8" stroke-width="2" />
    <text x="300" y="145" fill="#38bdf8" font-family="'Montserrat', sans-serif" font-size="14" font-weight="bold" text-anchor="middle">Length (L) = 60 mm</text>

    <!-- Diameter d = 0.75 mm -->
    <line x1="300" y1="-5" x2="300" y2="45" stroke="#00e676" stroke-width="2" />
    <text x="300" y="-15" fill="#00e676" font-family="'Montserrat', sans-serif" font-size="13" font-weight="bold" text-anchor="middle">Diameter (d) = 0.75 mm | Aspect Ratio = 80</text>

    <!-- Mechanical Hook Angle Annotation -->
    <path d="M 120 70 A 30 30 0 0 0 145 40" stroke="#f59e0b" stroke-width="2" fill="none" stroke-dasharray="3 3" />
    <text x="90" y="25" fill="#f59e0b" font-family="'Montserrat', sans-serif" font-size="11" font-weight="bold">45° Hook Crimp</text>
  </g>

  <!-- Technical Spec Box at Bottom -->
  <g transform="translate(40, 440)">
    <rect width="720" height="120" rx="16" fill="#001830" stroke="#1e3a5f" stroke-width="2" />
    
    <g transform="translate(30, 30)">
      <text x="0" y="18" fill="#94a3b8" font-family="'Montserrat', sans-serif" font-size="11" font-weight="600">TENSILE STRENGTH</text>
      <text x="0" y="44" fill="#ffffff" font-family="'Montserrat', sans-serif" font-size="20" font-weight="800">1,200 – 1,500 MPa</text>
      <text x="0" y="64" fill="#00e676" font-family="'Montserrat', sans-serif" font-size="11" font-weight="600">Cold-Drawn High-Carbon Wire</text>
    </g>

    <g transform="translate(260, 30)">
      <text x="0" y="18" fill="#94a3b8" font-family="'Montserrat', sans-serif" font-size="11" font-weight="600">FIBER COUNT / KG</text>
      <text x="0" y="44" fill="#ffffff" font-family="'Montserrat', sans-serif" font-size="20" font-weight="800">4,220 / kg</text>
      <text x="0" y="64" fill="#38bdf8" font-family="'Montserrat', sans-serif" font-size="11" font-weight="600">Optimal Anchorage Network</text>
    </g>

    <g transform="translate(490, 30)">
      <text x="0" y="18" fill="#94a3b8" font-family="'Montserrat', sans-serif" font-size="11" font-weight="600">CONFORMITY STANDARDS</text>
      <text x="0" y="44" fill="#ffffff" font-family="'Montserrat', sans-serif" font-size="16" font-weight="800">ASTM A820 Type I</text>
      <text x="0" y="64" fill="#cbd5e1" font-family="'Montserrat', sans-serif" font-size="11" font-weight="600">EN 14889-1 System 1 CE</text>
    </g>
  </g>
</svg>