<svg xmlns="http://www.w3.org/2000/svg" width="1200" height="800" viewBox="0 0 1200 800">
  <defs>
    <linearGradient id="bgFactory" x1="0" y1="0" x2="0" y2="1">
      <stop offset="0%" stop-color="#091422" />
      <stop offset="100%" stop-color="#142338" />
    </linearGradient>
    <linearGradient id="metalSpool" x1="0" y1="0" x2="1" y2="0">
      <stop offset="0%" stop-color="#475569" />
      <stop offset="50%" stop-color="#94a3b8" />
      <stop offset="100%" stop-color="#334155" />
    </linearGradient>
    <linearGradient id="wireGold" x1="0" y1="0" x2="1" y2="0">
      <stop offset="0%" stop-color="#f59e0b" />
      <stop offset="50%" stop-color="#fef3c7" />
      <stop offset="100%" stop-color="#d97706" />
    </linearGradient>
  </defs>

  <rect width="1200" height="800" fill="url(#bgFactory)" />

  <!-- Factory Hall Gantry & Structure -->
  <g stroke="#334155" stroke-width="4" opacity="0.7">
    <line x1="0" y1="120" x2="1200" y2="120" stroke-width="8" stroke="#1e293b" />
    <line x1="0" y1="180" x2="1200" y2="180" stroke-width="6" />
    <!-- Overhead crane beam -->
    <rect x="350" y="100" width="300" height="40" fill="#00356a" stroke="#38bdf8" stroke-width="2" rx="4" />
    <text x="500" y="125" fill="#ffffff" font-family="'Montserrat', sans-serif" font-size="12" font-weight="bold" text-anchor="middle">OVERHEAD GANTRY CRANE — 25T</text>
  </g>

  <!-- Continuous Cold-Drawing Wire Lines -->
  <!-- Wire spools (Feeders) -->
  <g transform="translate(80, 260)">
    <!-- Spool 1 -->
    <circle cx="80" cy="140" r="70" fill="url(#metalSpool)" stroke="#64748b" stroke-width="4" />
    <circle cx="80" cy="140" r="30" fill="#0f172a" />
    <!-- High carbon wire strand -->
    <path d="M 150 140 L 400 140" stroke="url(#wireGold)" stroke-width="5" />
    <text x="80" y="240" fill="#cbd5e1" font-family="'Montserrat', sans-serif" font-size="12" font-weight="bold" text-anchor="middle">ROD PAY-OFF REEL</text>
  </g>

  <!-- Multi-Die Reduction Drawing Blocks -->
  <g transform="translate(380, 320)">
    <rect x="0" y="0" width="220" height="160" rx="12" fill="#002244" stroke="#006e21" stroke-width="3" />
    <text x="110" y="32" fill="#00e676" font-family="'Montserrat', sans-serif" font-size="11" font-weight="bold" text-anchor="middle">MULTI-DIE COLD DRAWING</text>
    <circle cx="60" cy="90" r="35" fill="url(#metalSpool)" />
    <circle cx="150" cy="90" r="28" fill="url(#metalSpool)" />
    <path d="M 0 80 L 220 80" stroke="#f8fafc" stroke-width="3" />
    <text x="110" y="145" fill="#94a3b8" font-family="'Montserrat', sans-serif" font-size="10" text-anchor="middle">Ø 6.5 mm → Ø 0.75 mm</text>
  </g>

  <!-- Automated Crimp & 3D Hook Forming Die -->
  <g transform="translate(680, 320)">
    <rect x="0" y="0" width="220" height="160" rx="12" fill="#002244" stroke="#38bdf8" stroke-width="3" />
    <text x="110" y="32" fill="#38bdf8" font-family="'Montserrat', sans-serif" font-size="11" font-weight="bold" text-anchor="middle">3D HOOK-END FORMING</text>
    <polygon points="60,70 90,50 100,70" fill="#f59e0b" />
    <polygon points="120,70 130,50 160,70" fill="#f59e0b" />
    <!-- Formed fibers dropping onto conveyor -->
    <g stroke="#ffffff" stroke-width="2" fill="none">
      <path d="M 50 105 L 60 105 L 85 98 L 95 98" />
      <path d="M 120 115 L 130 115 L 155 108 L 165 108" />
    </g>
    <text x="110" y="145" fill="#94a3b8" font-family="'Montserrat', sans-serif" font-size="10" text-anchor="middle">Rotary High-Speed Shear</text>
  </g>

  <!-- In-Line Optical Eddy Current QA Inspection -->
  <g transform="translate(970, 320)">
    <rect x="0" y="0" width="160" height="160" rx="12" fill="#052e16" stroke="#00e676" stroke-width="2.5" />
    <text x="80" y="30" fill="#00e676" font-family="'Montserrat', sans-serif" font-size="11" font-weight="bold" text-anchor="middle">LASER QA INSPECTION</text>
    <circle cx="80" cy="85" r="32" fill="#022c22" stroke="#00e676" stroke-width="2" />
    <text x="80" y="82" fill="#ffffff" font-family="'Montserrat', sans-serif" font-size="10" font-weight="bold" text-anchor="middle">TOLERANCE</text>
    <text x="80" y="98" fill="#00e676" font-family="'Montserrat', sans-serif" font-size="12" font-weight="800" text-anchor="middle">±0.01 mm</text>
    <text x="80" y="145" fill="#a7f3d0" font-family="'Montserrat', sans-serif" font-size="10" text-anchor="middle">100% In-Line Scanned</text>
  </g>

  <!-- Conveyor Bed -->
  <rect x="60" y="490" width="1080" height="24" rx="4" fill="#334155" stroke="#475569" stroke-width="2" />
  <g stroke="#64748b" stroke-width="2">
    <line x1="120" y1="514" x2="120" y2="600" />
    <line x1="360" y1="514" x2="360" y2="600" />
    <line x1="600" y1="514" x2="600" y2="600" />
    <line x1="840" y1="514" x2="840" y2="600" />
    <line x1="1080" y1="514" x2="1080" y2="600" />
  </g>

  <!-- Alpha Hub Manufacturing Credentials Strip -->
  <g transform="translate(60, 640)">
    <rect width="1080" height="110" rx="18" fill="#001830" stroke="#1e3a5f" stroke-width="2" />
    
    <g transform="translate(40, 25)">
      <text x="0" y="20" fill="#00e676" font-family="'Montserrat', sans-serif" font-size="11" font-weight="bold" letter-spacing="2">HOKI ALPHA HUB CAPABILITY</text>
      <text x="0" y="46" fill="#ffffff" font-family="'Montserrat', sans-serif" font-size="18" font-weight="800">50,000 MT Annual Capacity</text>
      <text x="0" y="68" fill="#94a3b8" font-family="'Montserrat', sans-serif" font-size="12">Fully Automated Continuous Wire Drawing & Hooking Plant</text>
    </g>

    <!-- Certification Badges -->
    <g transform="translate(680, 25)">
      <rect x="0" y="10" width="110" height="46" rx="8" fill="#00356a" stroke="#38bdf8" stroke-width="1.5" />
      <text x="55" y="38" fill="#ffffff" font-family="'Montserrat', sans-serif" font-size="11" font-weight="bold" text-anchor="middle">ISO 9001:2015</text>

      <rect x="125" y="10" width="110" height="46" rx="8" fill="#00356a" stroke="#38bdf8" stroke-width="1.5" />
      <text x="180" y="38" fill="#ffffff" font-family="'Montserrat', sans-serif" font-size="11" font-weight="bold" text-anchor="middle">EN 14889-1</text>

      <rect x="250" y="10" width="120" height="46" rx="8" fill="#064e3b" stroke="#00e676" stroke-width="1.5" />
      <text x="310" y="38" fill="#a7f3d0" font-family="'Montserrat', sans-serif" font-size="11" font-weight="bold" text-anchor="middle">ISO 14040 EPD</text>
    </g>
  </g>
</svg>