<svg xmlns="http://www.w3.org/2000/svg" width="1200" height="800" viewBox="0 0 1200 800">
  <defs>
    <linearGradient id="bgScreed" x1="0" y1="0" x2="0" y2="1">
      <stop offset="0%" stop-color="#0a192f" />
      <stop offset="100%" stop-color="#1e293b" />
    </linearGradient>
    <linearGradient id="wetConcrete" x1="0" y1="0" x2="0" y2="1">
      <stop offset="0%" stop-color="#475569" />
      <stop offset="100%" stop-color="#334155" />
    </linearGradient>
    <linearGradient id="screedArm" x1="0" y1="0" x2="1" y2="0">
      <stop offset="0%" stop-color="#f59e0b" />
      <stop offset="100%" stop-color="#d97706" />
    </linearGradient>
    <linearGradient id="laserBeam" x1="0" y1="0" x2="1" y2="0">
      <stop offset="0%" stop-color="#ef4444" stop-opacity="0.9" />
      <stop offset="100%" stop-color="#ef4444" stop-opacity="0.1" />
    </linearGradient>
  </defs>

  <rect width="1200" height="800" fill="url(#bgScreed)" />

  <!-- Industrial High-Bay Roof Structure -->
  <g stroke="#ffffff" stroke-width="1" stroke-opacity="0.08">
    <line x1="0" y1="120" x2="1200" y2="120" />
    <line x1="0" y1="240" x2="1200" y2="240" />
    <line x1="200" y1="0" x2="200" y2="400" />
    <line x1="600" y1="0" x2="600" y2="400" />
    <line x1="1000" y1="0" x2="1000" y2="400" />
    <!-- Truss diagonals -->
    <path d="M 0 120 L 200 0 L 400 120 L 600 0 L 800 120 L 1000 0 L 1200 120" fill="none" />
  </g>

  <!-- Wet Concrete Floor Section (Perspective) -->
  <polygon points="60,740 340,420 1140,420 1140,740" fill="url(#wetConcrete)" stroke="#64748b" stroke-width="2" />

  <!-- Steel fibers embedded in wet paste -->
  <g stroke="#cbd5e1" stroke-width="2" stroke-linecap="round" opacity="0.65">
    <line x1="200" y1="580" x2="230" y2="590" />
    <line x1="380" y1="620" x2="410" y2="605" />
    <line x1="520" y1="530" x2="550" y2="545" />
    <line x1="720" y1="670" x2="750" y2="660" />
    <line x1="840" y1="590" x2="870" y2="605" />
    <line x1="960" y1="680" x2="990" y2="665" />
    <line x1="640" y1="610" x2="670" y2="625" />
    <line x1="440" y1="690" x2="470" y2="680" />
    <line x1="310" y1="510" x2="340" y2="520" />
    <line x1="820" y1="490" x2="850" y2="505" />
  </g>

  <!-- Laser Screed Head Graphic -->
  <g transform="translate(420, 360)">
    <!-- Telescopic Boom -->
    <rect x="80" y="30" width="380" height="24" rx="4" fill="url(#screedArm)" stroke="#b45309" stroke-width="1.5" />
    <rect x="0" y="20" width="90" height="44" rx="8" fill="#475569" />
    <!-- Screed Vibrating Box -->
    <rect x="440" y="20" width="220" height="70" rx="8" fill="#1e293b" stroke="#f59e0b" stroke-width="2" />
    <!-- Laser Receiver Poles -->
    <line x1="480" y1="20" x2="480" y2="-60" stroke="#94a3b8" stroke-width="4" />
    <circle cx="480" cy="-60" r="10" fill="#ef4444" />
    <line x1="620" y1="20" x2="620" y2="-60" stroke="#94a3b8" stroke-width="4" />
    <circle cx="620" cy="-60" r="10" fill="#ef4444" />
    <!-- Laser emitter reference beam -->
    <line x1="-300" y1="-60" x2="700" y2="-60" stroke="url(#laserBeam)" stroke-width="3" stroke-dasharray="8 4" />
  </g>

  <!-- Telemetry HUD Overlay -->
  <g transform="translate(60, 60)">
    <rect width="360" height="70" rx="16" fill="#00356a" fill-opacity="0.9" stroke="#38bdf8" stroke-width="1.5" />
    <text x="24" y="28" fill="#38bdf8" font-family="'Montserrat', sans-serif" font-size="11" font-weight="700">CONSTRUCTION PHASE 01</text>
    <text x="24" y="52" fill="#ffffff" font-family="'Montserrat', sans-serif" font-size="16" font-weight="900">Laser Screed &amp; Continuous Pour</text>
  </g>

  <g transform="translate(780, 60)">
    <rect width="360" height="70" rx="16" fill="#001830" fill-opacity="0.9" stroke="#00e676" stroke-width="1.5" />
    <text x="24" y="28" fill="#00e676" font-family="'Montserrat', sans-serif" font-size="11" font-weight="700">SLAB FLATNESS TOLERANCE</text>
    <text x="24" y="52" fill="#ffffff" font-family="'Montserrat', sans-serif" font-size="16" font-weight="900">FM2 Special / 3,200 m² Day</text>
  </g>

  <!-- Technical Watermark / Footer -->
  <g transform="translate(60, 710)">
    <rect width="1080" height="50" rx="12" fill="#020617" fill-opacity="0.8" stroke="#334155" stroke-width="1" />
    <text x="24" y="30" fill="#94a3b8" font-family="'Montserrat', sans-serif" font-size="12">
      Field Operation: 30 kg/m³ HOKI HF-8060 fibers dosed via automated conveyor into 10m³ transit mixer
    </text>
    <text x="1050" y="30" fill="#00e676" font-family="'Montserrat', sans-serif" font-size="12" font-weight="700" text-anchor="end">
      ZERO REBAR MESH
    </text>
  </g>
</svg>