<svg xmlns="http://www.w3.org/2000/svg" width="1200" height="800" viewBox="0 0 1200 800">
  <defs>
    <linearGradient id="bgWarehouse" x1="0" y1="0" x2="0" y2="1">
      <stop offset="0%" stop-color="#02162e" />
      <stop offset="100%" stop-color="#0f172a" />
    </linearGradient>
    <linearGradient id="polishedFloor" x1="0" y1="0" x2="0" y2="1">
      <stop offset="0%" stop-color="#334155" />
      <stop offset="60%" stop-color="#1e293b" />
      <stop offset="100%" stop-color="#0f172a" />
    </linearGradient>
    <linearGradient id="agvOrange" x1="0" y1="0" x2="1" y2="0">
      <stop offset="0%" stop-color="#ea580c" />
      <stop offset="100%" stop-color="#c2410c" />
    </linearGradient>
  </defs>

  <rect width="1200" height="800" fill="url(#bgWarehouse)" />

  <!-- Racking Aisles in Background -->
  <g stroke="#1e3a5f" stroke-width="2" opacity="0.6">
    <!-- Left Racking Columns -->
    <line x1="80" y1="80" x2="80" y2="460" />
    <line x1="160" y1="80" x2="160" y2="460" />
    <line x1="80" y1="160" x2="160" y2="160" />
    <line x1="80" y1="260" x2="160" y2="260" />
    <line x1="80" y1="360" x2="160" y2="360" />
    
    <!-- Right Racking Columns -->
    <line x1="1040" y1="80" x2="1040" y2="460" />
    <line x1="1120" y1="80" x2="1120" y2="460" />
    <line x1="1040" y1="160" x2="1120" y2="160" />
    <line x1="1040" y1="260" x2="1120" y2="260" />
    <line x1="1040" y1="360" x2="1120" y2="360" />
  </g>

  <!-- Superflat Polished Concrete Floor -->
  <polygon points="0,480 400,320 800,320 1200,480 1200,800 0,800" fill="url(#polishedFloor)" stroke="#475569" stroke-width="2" />

  <!-- AGV Automated Guide Line (Laser/Magnetic Track) -->
  <line x1="600" y1="320" x2="600" y2="800" stroke="#38bdf8" stroke-width="3" stroke-dasharray="16 10" />
  <line x1="420" y1="400" x2="320" y2="800" stroke="#00e676" stroke-width="2" stroke-opacity="0.4" />
  <line x1="780" y1="400" x2="880" y2="800" stroke="#00e676" stroke-width="2" stroke-opacity="0.4" />

  <!-- AGV Robotic Carrier in Foreground -->
  <g transform="translate(450, 460)">
    <!-- Shadow -->
    <ellipse cx="150" cy="180" rx="140" ry="20" fill="#000000" opacity="0.6" />
    <!-- Chassis -->
    <rect x="30" y="80" width="240" height="90" rx="16" fill="url(#agvOrange)" stroke="#f97316" stroke-width="2" />
    <!-- Wheels -->
    <rect x="40" y="155" width="40" height="24" rx="4" fill="#0f172a" />
    <rect x="220" y="155" width="40" height="24" rx="4" fill="#0f172a" />
    <!-- LIDAR / Optical Sensor Scanner -->
    <circle cx="150" cy="70" r="16" fill="#38bdf8" />
    <path d="M 120 70 A 30 30 0 0 1 180 70" fill="none" stroke="#38bdf8" stroke-width="3" />
    <!-- Industrial Cargo Payload (Automotive Stamping Press Part) -->
    <rect x="50" y="-10" width="200" height="90" rx="8" fill="#334155" stroke="#64748b" stroke-width="2" />
    <text x="150" y="40" fill="#f8fafc" font-family="'Montserrat', sans-serif" font-size="14" font-weight="800" text-anchor="middle">
      160 kN AGV WHEEL LOAD
    </text>
  </g>

  <!-- Header Banner -->
  <g transform="translate(60, 60)">
    <rect width="440" height="70" rx="16" fill="#00356a" fill-opacity="0.9" stroke="#38bdf8" stroke-width="1.5" />
    <text x="24" y="28" fill="#38bdf8" font-family="'Montserrat', sans-serif" font-size="11" font-weight="700">COMMISSIONED FACILITY OPERATION</text>
    <text x="24" y="52" fill="#ffffff" font-family="'Montserrat', sans-serif" font-size="16" font-weight="900">Jointless High-Traffic Floor Slab</text>
  </g>

  <!-- Performance Card -->
  <g transform="translate(740, 60)">
    <rect width="400" height="70" rx="16" fill="#001830" fill-opacity="0.9" stroke="#00e676" stroke-width="1.5" />
    <text x="24" y="28" fill="#00e676" font-family="'Montserrat', sans-serif" font-size="11" font-weight="700">MAINTENANCE STATUS</text>
    <text x="24" y="52" fill="#ffffff" font-family="'Montserrat', sans-serif" font-size="16" font-weight="900">Zero Joint Spalling / 100% Flatness</text>
  </g>
</svg>